<?xml version="1.0" standalone="no"?>
<!DOCTYPE svg PUBLIC "-//W3C//DTD SVG 20010904//EN"
 "http://www.w3.org/TR/2001/REC-SVG-20010904/DTD/svg10.dtd">
<svg version="1.0" xmlns="http://www.w3.org/2000/svg"
 width="260.000000pt" height="260.000000pt" viewBox="0 0 260.000000 260.000000"
 preserveAspectRatio="xMidYMid meet">
<metadata>
Created by potrace 1.11, written by Peter Selinger 2001-2013
</metadata>
<g transform="translate(0.000000,260.000000) scale(0.100000,-0.100000)"
fill="#000000" stroke="none">
<path d="M1470 2201 c-108 -32 -195 -94 -251 -181 -31 -48 -33 -50 -56 -35
-13 8 -33 21 -45 29 -44 27 -124 44 -193 41 -172 -9 -321 -157 -328 -325 l-1
-46 -63 -12 c-87 -17 -143 -45 -201 -102 -213 -210 -110 -574 181 -640 28 -6
285 -10 657 -10 l612 -1 46 -23 c58 -29 75 -48 103 -111 49 -110 -5 -232 -124
-283 -38 -16 -120 -15 -161 2 -35 14 -96 71 -96 88 0 6 -9 23 -21 39 -22 31
-65 39 -87 17 -35 -35 16 -143 96 -204 158 -120 400 -59 488 124 24 48 28 70
28 137 0 81 -12 117 -58 187 -10 16 -17 28 -15 29 2 0 24 2 49 5 111 13 205
63 268 143 126 159 107 388 -43 519 -43 39 -119 78 -166 87 l-34 6 -1 87 c-2
131 -40 221 -133 317 -113 116 -292 162 -451 116z"/>
<path d="M506 807 c-25 -18 -29 -46 -10 -74 14 -23 17 -23 255 -23 194 0 246
-3 269 -15 51 -26 70 -86 45 -139 -35 -74 -134 -82 -184 -16 -40 55 -113 29
-97 -35 8 -33 51 -81 89 -100 18 -9 57 -19 87 -22 47 -4 63 -1 110 24 47 25
60 38 86 90 26 49 31 70 28 111 -6 94 -72 179 -155 200 -22 5 -144 11 -272 11
-185 1 -236 -1 -251 -12z"/>
</g>
</svg>
